<?xml version="1.0" standalone="no"?>
<!DOCTYPE svg PUBLIC "-//W3C//DTD SVG 20010904//EN"
 "http://www.w3.org/TR/2001/REC-SVG-20010904/DTD/svg10.dtd">
<svg version="1.0" xmlns="http://www.w3.org/2000/svg"
 width="300.000000pt" height="300.000000pt" viewBox="0 0 300.000000 300.000000"
 preserveAspectRatio="xMidYMid meet">
<metadata>
Created by potrace 1.10, written by Peter Selinger 2001-2011
</metadata>
<g transform="translate(0.000000,300.000000) scale(0.100000,-0.100000)"
fill="#000000" stroke="none">
<path d="M2610 2988 c1 -21 47 -91 54 -80 3 5 2 12 -1 16 -7 6 -8 12 -16 54
-4 20 -37 30 -37 10z"/>
<path d="M402 2898 c-9 -9 -12 -339 -12 -1425 l0 -1413 1110 0 1110 0 0 1425
0 1425 -1098 0 c-841 0 -1101 -3 -1110 -12z m68 -36 c0 -3 -7 -13 -15 -22 -8
-9 -15 -39 -16 -69 -3 -72 -19 -42 -19 36 0 40 4 63 13 66 13 5 37 -2 37 -11z
m2068 -1377 l-3 -1345 -82 0 c-56 0 -83 4 -86 13 -4 9 -7 9 -14 0 -6 -9 -53
-13 -148 -15 l-140 -3 35 -17 35 -18 -108 3 c-59 1 -107 -2 -107 -6 0 -5 -4
-6 -9 -3 -5 4 -253 6 -550 7 -333 0 -541 4 -541 10 0 5 10 9 23 9 12 0 29 5
37 10 10 6 -50 9 -169 7 -112 -1 -186 -6 -188 -12 -2 -6 49 -9 142 -8 83 1
145 -3 145 -8 0 -5 -76 -10 -175 -10 -96 -1 -183 -2 -192 -3 -17 -1 -18 14
-18 182 0 119 3 181 10 179 6 -2 10 -55 10 -134 0 -72 3 -129 8 -126 4 2 7
595 7 1317 0 722 2 1315 4 1317 2 2 471 3 1041 1 l1036 -2 -3 -1345z m-2101
996 c-1 -126 -5 -227 -9 -224 -16 9 -8 453 8 453 1 0 2 -103 1 -229z m1 -308
l-1 -58 -9 43 c-9 40 -6 72 6 72 3 0 4 -26 4 -57z m-1 -570 c-2 -27 -3 -5 -3
47 0 52 1 74 3 48 2 -27 2 -69 0 -95z m0 -720 c-1 -125 -2 -25 -2 222 0 248 1
350 2 228 2 -122 2 -324 0 -450z m2129 -769 c-3 -8 -15 -14 -26 -14 -21 0 -21
0 2 28 23 28 37 20 24 -14z"/>
<path d="M1463 2783 c-10 -21 -26 -49 -37 -63 -18 -22 -18 -23 -1 -8 18 17 20
17 37 1 18 -16 19 -16 8 12 l-10 30 23 -27 c21 -26 23 -27 34 -9 16 25 77 69
71 50 -7 -20 30 -49 66 -50 24 -1 26 -3 8 -6 -12 -2 -20 -8 -17 -13 3 -5 12
-7 20 -3 11 4 13 1 8 -13 -5 -13 -3 -16 9 -12 9 4 15 0 15 -8 0 -17 -33 -10
-62 15 -10 9 -25 21 -32 26 -8 6 -19 15 -27 21 -15 14 -41 2 -55 -24 -7 -13
-5 -18 7 -20 50 -5 65 -10 73 -24 16 -29 1 -46 -41 -44 -22 1 -43 6 -47 10 -4
4 4 5 20 1 17 -5 27 -3 27 4 0 6 -8 11 -17 12 -12 0 -13 2 -5 6 7 3 19 -1 27
-7 11 -9 15 -9 15 -1 0 6 -12 16 -26 21 -20 8 -29 7 -38 -4 -6 -8 -30 -21 -54
-29 -36 -13 -41 -13 -31 -1 6 8 22 14 35 14 13 0 24 5 24 11 0 5 5 7 10 4 6
-3 10 -2 10 4 0 18 -17 21 -30 6 -15 -18 -34 -20 -24 -3 5 8 2 9 -9 5 -20 -8
-22 3 -4 23 6 8 0 4 -15 -9 -30 -26 -34 -47 -15 -71 9 -11 33 -15 96 -15 l85
0 8 -31 c12 -45 37 -39 51 13 6 24 17 43 25 43 7 0 10 -5 6 -12 -4 -7 -3 -8 5
-4 6 4 18 2 26 -4 12 -10 15 -9 15 9 0 17 -5 21 -17 17 -10 -3 -25 -1 -33 5
-12 8 -10 9 8 4 16 -5 22 -3 20 7 -2 7 3 12 10 11 19 -4 15 6 -14 32 -24 22
-25 25 -8 25 16 0 17 2 4 10 -8 5 -26 10 -39 10 -22 0 -22 1 -9 23 8 12 12 30
9 40 -6 16 -10 14 -30 -13 -12 -18 -25 -29 -28 -26 -4 3 2 16 13 27 l19 22
-25 -13 -25 -13 19 22 c17 19 17 21 3 21 -10 0 -17 -4 -17 -10 0 -5 -10 -20
-21 -31 l-22 -22 -18 24 c-16 21 -21 22 -39 11 -20 -12 -20 -11 -10 8 6 11 8
20 5 20 -3 0 -13 -17 -22 -37z"/>
<path d="M1675 2779 c7 -25 44 -63 53 -55 2 3 -10 22 -28 42 -28 32 -31 34
-25 13z"/>
<path d="M1401 2776 c-44 -24 -62 -77 -38 -110 12 -16 13 -14 9 18 -4 32 1 41
34 71 39 36 37 44 -5 21z"/>
<path d="M2166 2751 c-3 -5 1 -14 9 -21 9 -7 13 -21 10 -30 -6 -18 22 -56 33
-45 3 3 -3 11 -13 19 -19 14 -13 36 9 36 20 0 44 -32 29 -37 -7 -3 -13 -9 -13
-15 0 -6 6 -6 15 2 26 22 17 40 -30 61 -25 11 -43 24 -40 30 4 5 4 9 1 9 -3 0
-7 -4 -10 -9z"/>
<path d="M1255 2710 c-3 -5 -3 -14 0 -20 3 -5 2 -10 -4 -10 -6 0 -8 -15 -5
-36 3 -29 1 -35 -11 -31 -8 4 -17 2 -20 -3 -4 -6 -15 -10 -26 -10 -11 0 -17
-4 -14 -10 3 -5 1 -10 -5 -10 -6 0 -8 -4 -5 -10 3 -6 -4 -10 -18 -10 -13 0
-39 -11 -58 -25 -19 -13 -45 -30 -59 -37 -29 -15 -66 -58 -63 -73 2 -6 -19
-19 -46 -29 -27 -9 -52 -24 -55 -32 -3 -8 -10 -14 -16 -14 -6 0 -8 5 -5 10 6
10 -76 -19 -116 -41 -23 -12 -45 -49 -29 -49 6 0 8 -5 4 -12 -4 -7 -9 -23 -10
-37 -2 -18 0 -21 9 -12 22 22 28 11 8 -16 -28 -34 -19 -42 11 -10 17 18 30 23
53 20 36 -5 85 12 85 29 0 9 -3 9 -11 -2 -9 -12 -10 -12 -5 3 3 10 6 25 6 33
0 8 4 14 10 14 5 0 7 -6 4 -14 -3 -8 0 -17 5 -21 6 -3 9 -11 6 -16 -10 -15 12
-10 25 6 11 13 10 14 -4 9 -26 -10 -19 24 12 56 26 27 38 50 26 50 -3 0 -25
-14 -50 -31 -24 -16 -48 -28 -53 -25 -5 3 -32 -1 -61 -10 -28 -8 -55 -12 -58
-8 -4 4 -1 9 6 11 6 3 9 10 5 16 -4 7 0 8 13 3 10 -4 15 -4 11 0 -7 7 22 23
69 38 15 4 21 2 21 -9 0 -10 -6 -13 -19 -9 -10 3 -18 1 -18 -5 0 -19 36 -12
56 10 26 30 63 42 80 28 8 -6 11 -15 8 -20 -3 -5 0 -9 6 -9 12 0 28 17 108
113 60 74 167 157 201 157 20 0 101 -71 101 -89 0 -5 -15 -12 -32 -16 -18 -4
-27 -9 -20 -12 6 -2 9 -10 6 -15 -4 -7 -2 -8 5 -4 6 4 9 12 6 17 -4 5 3 9 15
9 13 0 19 -4 14 -11 -4 -7 -1 -10 7 -7 8 3 13 11 12 17 -2 6 7 11 20 10 12 0
16 -3 10 -6 -27 -10 -11 -23 31 -23 53 0 104 -32 129 -80 15 -31 15 -36 2 -46
-8 -6 -12 -14 -8 -18 4 -4 -10 0 -30 9 -38 16 -70 15 -106 -4 -24 -13 -27 -9
-36 47 -4 23 -11 42 -16 42 -5 0 -9 7 -9 15 0 8 -4 15 -10 15 -13 0 -13 -13 2
-28 8 -8 8 -15 -1 -25 -15 -19 -55 -19 -112 0 -42 13 -50 13 -75 -1 -64 -34
-114 -100 -134 -173 -7 -26 -18 -55 -24 -63 -9 -12 -7 -12 14 1 51 33 95 53
110 51 11 -2 12 -1 2 6 -9 6 -7 11 11 19 27 12 129 13 138 1 3 -5 28 -11 56
-15 47 -5 51 -4 58 18 10 33 65 89 88 89 34 0 59 -21 79 -66 19 -43 21 -45 51
-38 54 11 75 22 87 44 14 26 0 26 -34 -1 -15 -12 -30 -19 -33 -16 -6 7 85 67
101 67 30 0 85 -23 102 -41 l19 -21 -35 21 c-46 28 -96 28 -103 1 -5 -19 -2
-21 37 -15 38 6 44 4 59 -18 11 -16 31 -29 59 -35 24 -5 59 -17 78 -25 l36
-15 -38 78 c-38 80 -51 96 -68 85 -6 -4 -3 -17 10 -35 18 -26 28 -70 14 -70
-3 0 -24 21 -47 46 -52 57 -105 71 -164 44 -21 -9 -44 -24 -52 -33 -7 -10 -22
-17 -33 -17 -21 0 -21 9 -2 54 5 14 4 17 -4 12 -8 -5 -12 3 -12 24 0 63 -62
128 -130 137 -22 3 -40 7 -40 9 0 1 5 15 11 31 5 15 7 24 3 21 -10 -11 -70 60
-98 114 -19 37 -25 43 -29 28 -3 -13 -11 -17 -26 -13 -12 3 -21 10 -21 15 0 5
5 6 12 2 7 -4 8 -3 4 4 -9 15 -13 15 -21 2z m33 -65 c-1 -28 -4 -32 -14 -24
-11 9 -13 30 -5 57 1 1 5 2 11 2 5 0 9 -16 8 -35z m60 -27 c11 2 16 -11 13
-31 -1 -5 3 -6 8 -2 6 3 15 -4 21 -15 12 -22 5 -60 -11 -60 -6 0 -7 5 -4 10 3
6 1 10 -5 10 -6 0 -8 4 -5 10 3 5 -10 26 -29 46 -26 26 -36 46 -36 68 l0 31
18 -35 c10 -19 23 -34 30 -32z m-304 -150 c-8 -28 -25 -50 -32 -43 -3 2 1 12
9 22 13 17 13 17 -13 0 -42 -26 -46 -20 -8 13 42 35 54 37 44 8z m-67 -73
c-28 -25 -47 -32 -47 -17 0 7 56 40 70 41 3 0 -8 -11 -23 -24z m395 -35 c-14
-10 -12 -31 3 -36 18 -7 19 -26 3 -42 -9 -9 -19 -6 -42 11 -33 25 -91 33 -155
22 -41 -7 -90 -44 -110 -83 -24 -45 -23 -13 0 34 41 82 89 104 193 91 28 -3
49 1 70 14 22 14 32 15 38 6 4 -6 4 -14 0 -17z m-82 -66 c22 -9 40 -20 40 -26
0 -5 5 -6 12 -2 7 4 8 3 4 -5 -6 -9 -11 -9 -22 0 -51 42 -129 39 -191 -7 -18
-14 -33 -21 -33 -16 0 24 84 71 127 72 13 0 41 -7 63 -16z m-30 -30 c0 -11 -5
-11 -24 -3 -17 8 -29 8 -45 0 -11 -7 -21 -9 -21 -6 0 10 63 33 77 28 7 -3 13
-11 13 -19z m-440 6 c0 -5 -7 -15 -15 -23 -8 -8 -12 -16 -10 -18 2 -2 -10 -4
-27 -3 -18 0 -34 8 -41 19 -8 15 -7 17 11 13 11 -3 23 -1 25 6 5 13 57 18 57
6z"/>
<path d="M1740 2648 c3 -83 0 -109 -11 -102 -12 7 -9 -23 6 -58 6 -15 2 -18
-18 -16 -15 1 -24 4 -22 6 2 3 -5 12 -17 22 -24 19 -16 44 13 37 21 -6 37 29
21 45 -18 18 -50 -1 -58 -35 -4 -18 -9 -35 -10 -39 -1 -5 -2 -11 -3 -15 -3
-15 -42 33 -50 61 -9 31 -9 30 -10 -11 -1 -41 0 -43 52 -69 40 -21 67 -27 119
-28 68 -1 68 -1 68 -30 0 -23 -2 -26 -14 -17 -16 14 -119 0 -141 -19 -6 -5
-15 -7 -18 -3 -4 3 -7 0 -7 -7 0 -10 12 -11 53 -5 75 11 115 9 144 -10 13 -9
31 -14 39 -11 8 3 26 1 40 -5 47 -17 38 -1 -12 23 -44 21 -49 27 -49 56 0 22
-5 32 -15 32 -29 1 -100 39 -100 55 0 8 5 15 11 15 5 0 7 6 3 13 -9 13 26 -11
38 -28 4 -5 8 -6 8 -1 0 5 8 2 19 -8 22 -20 55 -11 46 13 -5 13 -4 14 6 4 16
-16 33 -17 23 -1 -5 8 -1 9 12 4 17 -6 17 -5 4 8 -9 9 -36 16 -68 17 -29 1
-50 4 -47 7 3 3 -4 11 -15 19 -11 8 -17 20 -14 28 9 21 22 18 29 -6 6 -19 13
-21 48 -16 24 3 54 0 74 -8 37 -16 45 -30 11 -19 -20 6 -21 5 -9 -10 10 -12
17 -13 26 -6 18 15 63 22 69 11 4 -5 3 -17 0 -26 -5 -12 -9 -13 -14 -4 -7 10
-18 9 -54 -1 -49 -13 -94 -49 -47 -37 14 3 32 1 40 -6 14 -11 14 -10 2 6 -12
15 -11 17 8 17 18 0 21 -4 17 -22 -3 -13 -3 -17 0 -10 4 9 10 10 19 2 10 -8
14 -4 19 15 4 14 15 34 26 45 19 19 19 20 -33 46 -29 15 -72 27 -97 29 -84 4
-109 15 -131 56 -11 22 -22 39 -25 39 -3 0 -5 -19 -4 -42z"/>
<path d="M2420 2606 c6 -8 10 -25 8 -38 -2 -17 -10 -23 -28 -23 -16 0 -26 -6
-28 -19 -3 -15 0 -18 17 -13 11 2 22 0 25 -7 2 -6 5 -1 5 12 1 27 17 29 26 2
7 -22 -2 -43 -15 -35 -4 3 -11 -2 -14 -11 -5 -12 -13 -14 -33 -9 -16 4 -31 12
-35 18 -6 9 -8 9 -8 0 0 -6 16 -20 35 -32 20 -12 35 -28 34 -38 0 -11 -3 -13
-6 -5 -2 6 -9 12 -14 12 -5 0 -4 -9 3 -20 11 -17 11 -22 0 -29 -10 -6 -10 -10
1 -20 16 -12 47 -5 47 11 0 6 -7 8 -15 4 -10 -3 -15 1 -15 13 0 25 31 36 46
17 13 -18 34 -21 34 -5 0 6 -9 13 -20 16 -21 6 -26 18 -11 27 5 4 12 0 14 -6
3 -8 6 -6 6 5 1 9 5 17 11 17 11 0 -8 48 -28 69 -12 13 -11 17 4 29 17 13 17
14 2 9 -13 -5 -18 -1 -18 11 -1 19 -23 52 -35 52 -4 0 -2 -7 5 -14z m60 -139
c0 -7 -13 -20 -29 -30 -24 -14 -30 -15 -40 -3 -10 11 -7 18 11 30 13 10 24 12
26 6 2 -5 8 -10 13 -10 4 0 5 7 2 17 -4 11 -3 14 5 9 7 -4 12 -13 12 -19z"/>
<path d="M1510 2526 c46 -25 65 -26 39 -2 -8 8 -30 17 -49 20 l-35 7 45 -25z"/>
<path d="M2060 2495 c0 -32 -2 -35 -19 -25 -28 15 -39 12 -17 -5 10 -7 15 -18
12 -23 -3 -5 16 -18 42 -28 67 -27 71 -28 32 -4 -19 12 -26 18 -15 15 11 -4
27 -8 35 -9 8 0 19 -5 23 -11 5 -6 7 -4 4 5 -2 8 -12 14 -21 14 -9 -1 -16 3
-16 9 0 6 -3 7 -6 4 -4 -3 -15 -2 -26 4 -16 9 -19 19 -16 50 2 21 0 39 -4 39
-5 0 -8 -16 -8 -35z"/>
<path d="M1256 2503 c-4 -5 -11 -8 -14 -9 -21 -2 -62 -17 -59 -20 7 -8 107 18
107 27 0 11 -24 12 -34 2z"/>
<path d="M1140 2471 c-14 -16 -31 -42 -38 -58 l-12 -28 17 24 c10 13 32 39 50
57 17 19 26 34 20 34 -7 -1 -23 -14 -37 -29z"/>
<path d="M916 2433 c-20 -23 -34 -32 -45 -27 -35 15 -146 -14 -164 -43 -4 -6
15 1 41 14 36 19 58 24 94 20 43 -4 50 -1 79 29 18 19 31 35 28 37 -2 2 -17
-11 -33 -30z"/>
<path d="M1870 2418 l0 -33 19 24 18 23 37 -51 c20 -29 43 -54 51 -57 8 -4 13
-10 10 -14 -3 -5 3 -30 14 -57 10 -27 21 -71 24 -99 3 -27 11 -63 18 -79 17
-43 19 -54 22 -114 3 -84 22 -73 22 13 0 42 -4 69 -8 63 -5 -7 -7 -3 -4 11 3
12 2 20 -3 17 -4 -3 -10 5 -13 18 -2 12 -8 31 -12 42 -4 11 5 2 20 -19 25 -35
45 -97 48 -147 1 -16 4 -17 48 -22 14 -2 30 -6 36 -10 6 -4 13 -1 16 5 2 7 8
9 13 5 5 -5 1 -15 -10 -23 -23 -17 -40 -18 -30 -3 4 6 -1 9 -12 8 -11 -2 -25
0 -33 5 -10 7 -12 3 -6 -15 16 -52 37 -95 57 -117 l22 -22 -24 -17 c-21 -15
-22 -17 -5 -23 16 -6 16 -7 0 -23 -13 -14 -15 -27 -10 -67 4 -28 11 -50 16
-50 5 0 9 -8 9 -17 0 -10 9 -29 20 -43 21 -27 28 -104 10 -115 -6 -3 -10 4
-10 17 0 13 -4 30 -9 37 -6 10 -8 1 -4 -25 4 -31 1 -43 -16 -58 -29 -27 -38
-12 -18 29 21 44 21 52 2 71 -15 16 -20 9 -16 -23 1 -7 -6 -13 -15 -13 -16 0
-16 -2 2 -16 18 -15 18 -15 -6 -9 -69 17 -71 16 -68 -4 2 -11 -1 -19 -7 -18
-5 1 -8 12 -7 24 3 17 0 21 -12 17 -9 -3 -16 -12 -16 -20 0 -7 -7 -17 -15 -21
-8 -5 -17 -24 -20 -43 -3 -26 -3 -29 3 -10 5 17 10 21 16 12 4 -6 5 -16 1 -21
-11 -19 12 -19 53 -1 23 11 42 24 42 29 0 6 -15 3 -35 -6 -38 -18 -61 -9 -49
20 5 13 10 14 25 6 22 -12 39 -4 39 17 0 14 2 14 15 0 17 -16 21 -71 5 -61 -5
3 -10 1 -10 -4 0 -6 -8 -11 -17 -12 -10 0 -13 -3 -6 -6 10 -3 10 -7 0 -18 -7
-7 -16 -10 -21 -7 -5 3 -6 0 -2 -7 4 -6 12 -9 17 -6 5 4 9 1 9 -4 0 -6 -6 -11
-12 -11 -9 0 -8 -4 2 -10 13 -8 12 -10 -3 -10 -11 0 -22 11 -28 28 -12 36 -34
36 -68 3 l-26 -26 -3 23 c-2 13 1 29 7 36 6 7 12 29 13 49 2 23 8 37 16 37 7
0 10 5 7 10 -4 6 -11 8 -16 5 -5 -4 -9 10 -9 29 0 19 5 38 10 41 6 3 10 -4 10
-16 0 -18 3 -20 12 -11 9 9 8 16 -5 30 -22 24 -12 52 18 52 13 0 40 9 59 21
35 20 35 20 47 1 7 -12 19 -18 27 -14 9 3 13 1 9 -5 -4 -6 0 -16 7 -22 9 -8
16 -8 20 -2 4 6 14 8 24 5 9 -3 -5 7 -31 23 -68 42 -76 52 -54 67 9 7 17 18
17 24 0 6 5 14 11 18 8 5 10 -2 6 -22 -6 -31 7 -74 23 -74 5 0 10 7 10 15 0 8
-4 15 -10 15 -5 0 -10 18 -10 40 0 22 -6 50 -12 61 -10 17 -10 23 0 26 17 6
15 23 -3 23 -9 0 -15 -9 -15 -23 0 -24 -53 -113 -80 -134 -25 -20 -50 -22 -66
-6 -10 11 -12 19 -4 27 5 7 7 16 3 19 -3 4 2 9 11 13 9 3 16 12 16 19 0 6 9
20 20 30 20 19 28 41 10 30 -5 -3 -10 -1 -10 5 0 6 6 10 13 9 12 -2 65 10 80
18 4 2 2 14 -4 25 -9 16 -13 18 -19 7 -5 -7 -7 -16 -4 -20 2 -4 -5 -5 -16 -2
-19 5 -19 7 -5 23 17 19 20 40 5 40 -5 0 -10 -6 -10 -12 0 -10 -2 -10 -8 -1
-5 8 -20 -13 -42 -60 -49 -107 -78 -205 -91 -309 -23 -198 -56 -323 -98 -377
-15 -20 -21 -22 -39 -12 -12 7 -22 17 -22 23 0 7 -12 24 -26 39 -22 23 -30 26
-55 19 -16 -5 -36 -16 -44 -24 -11 -11 -22 -13 -39 -6 -15 5 -27 5 -35 -3 -8
-8 -11 -7 -11 3 -1 8 -8 2 -16 -13 -8 -16 -14 -38 -14 -50 4 -41 0 -52 -20
-65 -16 -10 -24 -10 -43 2 -12 7 -31 12 -42 11 -108 -16 -161 -22 -167 -18 -5
2 -8 -2 -8 -9 0 -7 -27 15 -60 49 -45 47 -62 74 -71 109 -7 26 -19 55 -27 64
-8 10 -16 36 -17 60 -2 23 -10 49 -18 58 -8 10 -22 41 -32 70 -9 28 -19 52
-22 52 -2 0 -3 -22 0 -49 3 -37 1 -51 -10 -55 -9 -4 -12 -14 -8 -28 4 -17 1
-15 -11 7 -9 17 -21 33 -27 36 -5 4 -5 9 2 13 6 4 11 19 10 34 l-1 27 -12 -29
c-11 -23 -14 -25 -19 -11 -12 31 -8 55 8 49 19 -8 19 1 -1 31 -8 13 -28 26
-42 30 -27 6 -73 61 -86 102 -4 13 -13 20 -20 17 -18 -7 -31 57 -14 67 9 6 9
13 0 33 -7 16 -8 26 -2 26 6 0 10 7 10 15 0 14 12 19 33 16 4 0 7 3 7 9 0 5
-10 8 -22 6 -13 -3 -27 -5 -31 -5 -5 -1 -5 -7 -1 -13 5 -10 3 -9 -7 0 -12 11
-12 15 2 23 13 7 15 16 9 44 -4 19 -4 33 0 30 5 -3 16 2 24 11 15 14 18 14 36
-8 l19 -23 -6 23 c-3 12 -10 22 -15 22 -7 0 -7 5 -1 13 15 19 34 69 25 63 -5
-3 -9 8 -9 24 0 25 5 30 44 39 24 6 43 17 43 24 3 78 13 162 26 205 8 29 12
57 9 62 -9 14 -55 12 -56 -2 0 -7 -2 -29 -4 -48 -5 -42 3 -72 16 -65 5 4 9 1
9 -4 0 -17 -38 -51 -57 -51 -14 0 -15 -2 -5 -9 10 -6 10 -10 -2 -20 -8 -7 -18
-26 -21 -42 -4 -16 -10 -27 -15 -24 -5 3 -8 -21 -7 -54 1 -32 -1 -57 -5 -54
-5 2 -8 0 -8 -6 0 -5 5 -13 11 -16 15 -10 -21 -34 -51 -34 -14 0 -33 6 -43 13
-14 11 -15 15 -3 25 11 9 15 7 19 -9 3 -12 13 -20 26 -20 22 0 28 14 11 25
-16 10 -12 23 9 30 14 4 19 15 19 35 -1 16 -5 27 -10 24 -5 -3 -7 -12 -4 -20
3 -8 0 -14 -7 -13 -6 1 -19 1 -27 0 -13 -1 -13 -2 0 -11 8 -5 11 -12 7 -16 -4
-4 -13 -2 -19 4 -7 7 -17 12 -23 12 -5 0 -3 -5 5 -10 13 -8 13 -10 -2 -10 -9
0 -19 -5 -21 -10 -3 -6 -4 -5 -3 2 1 6 -6 20 -16 30 -10 10 -16 23 -12 29 4 8
10 7 17 0 6 -6 25 -10 42 -10 l30 2 -35 7 c-33 7 -33 7 -7 9 45 2 87 31 87 61
0 20 2 22 10 10 8 -13 10 -13 10 1 0 9 -7 19 -15 23 -17 6 -22 86 -5 86 6 0
10 -8 10 -17 1 -17 1 -17 14 0 17 22 30 22 22 1 -5 -13 -4 -14 7 -6 8 7 16 10
19 7 3 -3 11 3 19 12 13 16 12 17 -3 4 -10 -8 -18 -9 -18 -3 0 6 5 12 11 14 5
2 7 11 3 21 -6 16 -9 16 -42 -3 -19 -12 -41 -19 -47 -16 -7 2 -21 -2 -32 -10
-17 -14 -17 -14 1 -7 32 11 10 -13 -28 -31 -25 -12 -41 -14 -60 -6 -24 9 -25
13 -22 70 2 47 -1 60 -11 56 -18 -7 -16 3 7 42 11 17 26 32 34 32 7 0 20 8 27
18 11 14 11 15 -1 5 -8 -7 -21 -13 -30 -13 -18 0 -54 -59 -64 -105 -5 -24 -4
-27 4 -12 17 26 31 11 19 -20 -13 -35 -2 -81 22 -88 16 -6 17 -8 5 -21 -17
-17 -49 -7 -42 13 3 8 1 11 -4 8 -6 -3 -10 -12 -10 -20 0 -7 -6 -15 -12 -18
-7 -2 -2 -2 11 0 14 2 28 -3 37 -14 7 -10 14 -13 14 -8 0 6 16 10 38 8 27 -2
31 0 14 5 l-23 7 30 29 c17 17 31 25 31 19 0 -6 -6 -13 -12 -16 -7 -2 -10 -8
-5 -12 4 -5 13 -3 19 3 20 20 30 14 17 -10 -18 -33 -41 -48 -67 -41 -16 4 -22
1 -22 -11 0 -19 -16 -21 -24 -3 -3 6 -2 -1 1 -17 5 -25 3 -28 -11 -23 -10 4
-15 3 -11 -3 3 -5 -3 -14 -14 -20 -19 -10 -46 -78 -36 -89 3 -2 5 1 5 8 0 7 3
10 8 7 4 -2 18 2 32 10 14 7 21 13 17 14 -5 0 -17 -5 -28 -10 -24 -13 -26 6
-3 38 21 30 29 28 41 -12 10 -32 8 -37 -23 -67 -19 -18 -33 -42 -33 -53 2 -20
2 -20 6 0 2 12 14 30 25 40 21 19 21 19 14 -1 -44 -117 -48 -142 -32 -174 13
-24 23 -31 44 -30 20 1 22 2 7 6 -29 7 -45 32 -45 70 0 18 2 33 5 33 3 0 19
-16 36 -35 17 -19 38 -35 48 -35 9 0 3 8 -17 20 -46 28 -58 60 -43 110 7 22 9
45 6 50 -3 6 -4 10 -2 10 2 0 21 -34 41 -75 36 -72 42 -106 38 -188 -1 -16 -6
-26 -12 -22 -6 3 -24 -3 -40 -15 -23 -16 -30 -29 -30 -54 0 -34 34 -76 61 -76
8 1 2 7 -13 16 -49 26 -47 78 5 106 15 7 22 7 28 -3 6 -9 9 -1 10 26 2 38 2
38 6 7 4 -28 7 -32 26 -26 19 6 20 5 5 -10 -9 -9 -23 -16 -31 -16 -16 0 -27
-21 -26 -48 0 -9 5 -4 11 13 10 27 12 28 19 10 7 -18 8 -18 8 -2 1 10 6 15 11
12 6 -3 10 -1 10 6 0 10 3 10 12 1 10 -10 7 -22 -12 -56 -19 -37 -22 -50 -14
-77 5 -19 19 -38 31 -43 l21 -10 -20 -27 c-25 -33 -19 -66 18 -106 l26 -28
-21 36 c-26 44 -27 81 -3 102 29 26 41 24 59 -13 10 -19 27 -37 37 -39 17 -3
16 1 -7 29 -29 34 -33 45 -17 55 11 7 43 -59 44 -90 1 -11 -3 -24 -9 -28 -6
-5 5 -6 22 -3 29 5 35 2 49 -25 8 -17 30 -37 48 -44 28 -12 35 -22 49 -74 9
-33 17 -68 17 -76 0 -8 6 -15 14 -15 16 0 86 -77 86 -96 0 -6 -6 -17 -14 -24
-12 -9 -23 -4 -61 31 -42 39 -47 41 -62 27 -14 -15 -10 -22 47 -83 56 -60 62
-70 56 -98 -8 -43 -36 -79 -77 -99 -19 -10 -27 -18 -18 -18 9 0 33 11 54 25
20 14 35 20 33 13 -3 -7 -19 -23 -38 -35 -41 -28 -27 -30 18 -3 41 25 50 25
27 0 -28 -30 -79 -44 -119 -30 -49 16 -118 93 -114 128 5 43 43 42 69 -2 15
-25 28 -36 44 -36 23 0 55 33 55 55 0 7 -25 36 -55 67 -47 47 -55 61 -55 92 0
43 38 86 76 86 13 0 24 5 24 11 0 21 -73 1 -97 -25 -30 -35 -39 -96 -18 -135
8 -17 20 -31 25 -31 5 0 17 -14 26 -32 l17 -32 -24 17 c-40 29 -51 31 -77 16
-40 -22 -49 -44 -33 -81 7 -18 13 -39 14 -46 0 -7 13 -20 29 -30 15 -9 28 -19
28 -23 0 -6 52 -20 95 -24 11 -1 40 7 65 18 25 11 62 19 83 18 22 -1 44 3 51
8 7 6 23 7 37 4 l24 -7 -24 -6 c-27 -6 -70 -71 -71 -106 0 -24 39 -64 63 -64
30 0 18 -16 -39 -54 -34 -22 -64 -34 -74 -31 -10 3 -30 0 -45 -7 -22 -10 -28
-9 -35 3 -6 8 -6 15 0 17 6 2 10 22 10 45 0 31 -5 45 -19 54 -33 21 -73 -40
-98 -147 -2 -8 -6 -37 -10 -64 -5 -40 -3 -51 12 -62 13 -9 23 -10 37 -3 10 5
22 8 27 5 5 -3 14 1 21 9 18 22 52 18 94 -10 43 -29 49 -30 66 -10 10 12 15
12 36 -2 22 -14 26 -14 49 1 14 9 38 38 54 63 23 37 27 51 19 66 -7 14 -7 22
3 28 7 4 16 6 21 3 4 -2 12 5 18 16 13 24 -2 44 -45 60 -24 9 -25 11 -10 26
12 13 21 14 43 6 15 -6 61 -11 103 -11 63 -1 81 2 102 20 29 22 34 48 15 82
-16 31 -39 46 -69 47 -15 0 -32 6 -38 14 -7 8 -28 17 -48 21 -34 6 -40 4 -70
-31 l-32 -38 -28 24 c-15 14 -29 26 -31 26 -2 1 11 16 29 33 28 28 35 31 58
22 40 -15 73 -17 106 -4 33 12 113 24 158 23 15 0 41 6 57 15 17 9 55 15 93
15 60 0 66 2 104 37 57 54 71 81 62 121 -7 34 -57 105 -74 106 -6 1 -23 16
-39 34 -19 22 -36 32 -48 29 -23 -6 -22 -2 6 52 l23 45 18 -27 c9 -15 24 -27
32 -27 8 0 30 -12 49 -27 19 -14 49 -27 67 -28 18 -2 40 -6 50 -10 10 -4 38
-5 63 -1 48 6 87 -7 134 -48 l25 -21 -20 25 c-11 13 -27 31 -35 38 -13 12 -12
13 5 7 11 -3 38 -8 60 -11 30 -4 36 -2 24 5 -9 6 -74 15 -145 20 -146 12 -176
20 -256 72 -47 30 -54 38 -38 42 14 4 20 14 20 35 0 26 3 29 25 24 16 -3 33 2
44 12 10 9 20 13 24 10 3 -4 18 -3 34 0 15 4 22 10 16 14 -6 5 -3 18 9 37 18
27 19 27 15 6 -4 -17 -3 -21 5 -13 5 5 10 27 11 47 1 21 3 33 5 26 5 -14 35
-14 50 1 17 17 25 4 17 -32 -8 -38 -33 -50 -51 -25 -8 10 -14 14 -14 8 0 -18
28 -35 49 -28 22 7 43 57 34 81 -6 16 91 124 112 124 14 0 18 91 4 117 -13 25
-5 58 12 47 8 -5 9 -3 4 6 -8 13 -23 0 -50 -44 -5 -9 -28 -23 -50 -31 -40 -13
-40 -13 -47 13 -5 15 -6 33 -3 40 3 8 0 10 -7 6 -8 -5 -9 -2 -5 10 4 10 7 20
7 22 0 2 6 4 13 4 6 0 23 -16 36 -35 13 -19 30 -35 38 -35 9 0 0 17 -24 45
-21 25 -43 43 -50 41 -6 -3 -2 11 9 31 18 29 19 37 7 45 -11 8 -10 9 4 4 11
-3 24 -3 30 1 7 4 16 8 22 8 5 0 11 8 13 18 3 17 2 17 -25 4 -26 -14 -31 -14
-53 3 -13 10 -29 16 -34 13 -5 -4 -7 1 -3 11 4 9 3 15 -2 12 -11 -7 -23 22
-15 35 3 5 0 9 -6 9 -6 0 -8 5 -5 10 4 7 14 5 28 -5 24 -17 41 -20 33 -6 -3 5
1 14 8 20 11 10 15 8 20 -6 3 -10 4 -3 2 15 -2 28 0 32 23 33 23 2 23 2 4 6
-19 4 -20 7 -11 34 6 17 8 32 5 35 -3 3 -10 -11 -17 -30 -7 -21 -16 -33 -22
-30 -7 4 -8 2 -4 -4 8 -13 6 -14 -36 -16 -16 -1 -28 2 -28 7 0 5 9 7 20 4 23
-6 24 -3 8 26 -10 20 -10 21 6 8 26 -22 45 4 47 68 2 41 -1 55 -14 63 -10 5
-14 14 -11 20 5 7 2 8 -6 3 -9 -6 -11 2 -8 31 3 22 8 48 12 59 4 11 -2 4 -13
-15 l-19 -35 -7 30 c-3 17 -9 37 -13 45 -9 18 -4 60 7 60 4 0 14 -11 21 -25
16 -30 23 -27 15 7 -6 25 -31 33 -52 16 -7 -5 -14 -5 -18 2 -3 5 -2 10 3 10 5
0 6 15 4 33 -3 17 -7 26 -9 20 -3 -9 -10 -10 -23 -3 -10 5 -25 7 -33 4 -9 -3
-26 0 -39 7 -20 10 -21 10 -11 -2 9 -11 6 -14 -20 -15 -18 -1 -27 1 -20 3 7 2
9 11 6 20 -5 12 -3 14 8 8 12 -7 12 -6 1 7 -13 16 -48 27 -114 35 -37 4 -38 3
-38 -29z m80 -14 c32 -50 64 -70 95 -56 20 9 27 8 37 -7 13 -18 43 -33 67 -35
8 -1 16 -7 18 -14 3 -7 -1 -10 -10 -7 -7 3 -20 -1 -27 -10 -7 -8 -8 -15 -3
-15 5 0 18 -7 29 -16 18 -14 18 -15 -4 -4 -22 11 -23 10 -12 -10 7 -14 17 -19
27 -16 12 5 13 3 5 -7 -6 -7 -9 -26 -6 -41 3 -18 1 -25 -6 -21 -13 8 -13 11
10 -65 26 -84 26 -109 1 -107 -21 1 -36 51 -25 81 3 9 -1 27 -10 41 -9 14 -13
25 -8 25 4 0 9 11 10 25 1 16 -3 25 -13 25 -7 0 -27 12 -42 26 l-28 25 30 -17
c23 -13 20 -7 -15 25 -25 22 -40 41 -33 41 6 0 15 -4 18 -10 3 -5 14 -14 25
-20 15 -8 17 -7 13 10 -3 11 -9 20 -14 20 -5 0 -9 5 -9 10 0 6 9 10 20 10 11
0 20 4 20 9 0 6 -19 9 -42 9 -39 0 -47 4 -95 56 -29 31 -53 61 -53 66 0 17 8
11 30 -26z m178 -40 c23 -7 30 -28 12 -39 -12 -7 -44 15 -47 33 -3 13 2 14 35
6z m-31 -206 c6 -13 11 -26 11 -31 1 -4 9 -21 18 -38 8 -17 13 -33 10 -36 -2
-3 -16 18 -30 45 -14 28 -30 53 -36 57 -14 9 -12 25 3 25 8 0 18 -10 24 -22z
m111 -2 c-3 -12 36 -68 43 -61 2 2 2 -20 0 -48 l-5 -52 -6 40 c-6 37 -25 85
-35 85 -2 0 3 -16 11 -35 20 -49 18 -79 -3 -40 -17 31 -26 138 -11 129 5 -3 7
-11 6 -18z m-1278 -45 c-5 -11 -8 -26 -5 -33 3 -8 1 -25 -5 -39 -9 -21 -9 -20
-5 11 l6 35 -22 -37 c-25 -42 -44 -51 -33 -15 16 52 24 66 46 81 29 20 31 20
18 -3z m-110 -45 c0 -29 -69 -70 -87 -52 -4 3 1 6 10 6 10 0 17 5 17 11 0 5 4
8 8 5 5 -3 15 6 22 19 15 28 30 33 30 11z m-85 -195 c0 -5 11 -18 25 -29 22
-18 23 -22 12 -47 -10 -22 -15 -25 -25 -15 -9 10 -9 14 1 17 6 3 12 9 12 14 0
4 -6 6 -13 3 -15 -5 -37 35 -37 68 0 18 3 20 13 10 6 -7 12 -17 12 -21z m1619
-315 c-1 -38 -34 -90 -34 -54 0 9 -6 18 -12 21 -8 3 -3 12 15 26 15 13 27 27
27 32 0 5 -10 1 -22 -11 -13 -12 -34 -20 -52 -19 l-31 1 31 9 c17 5 37 16 44
24 20 24 35 11 34 -29z m-55 -97 c-14 -27 -21 -23 -13 6 4 16 2 25 -6 25 -6 0
-8 5 -4 12 12 20 35 -21 23 -43z m-1447 -23 c-12 -42 -6 -48 9 -10 12 32 14
30 22 -18 5 -34 3 -38 -15 -38 -49 0 -75 63 -46 110 11 17 15 18 26 6 10 -10
11 -22 4 -50z m79 -12 c-4 -34 -9 -44 -22 -44 -10 0 -13 63 -2 74 14 14 28 -2
24 -30z m154 -212 c-3 -3 -15 3 -26 14 -17 18 -18 25 -9 50 l12 29 15 -43 c8
-24 12 -47 8 -50z m662 -109 c4 -10 15 -25 26 -33 12 -10 16 -21 11 -34 -7
-19 -8 -19 -15 0 -6 16 -8 14 -9 -11 -1 -16 -6 -41 -11 -55 -5 -17 -7 -6 -4
35 3 47 0 38 -15 -45 -11 -58 -19 -116 -18 -130 l3 -25 21 21 c13 13 24 41 28
70 4 27 12 62 18 77 12 30 54 57 88 57 24 0 80 -56 80 -81 0 -12 6 -16 19 -12
24 6 71 -37 71 -64 0 -29 -37 -82 -72 -103 -34 -21 -125 -29 -113 -10 3 6 -2
10 -11 10 -10 0 -28 10 -41 22 -13 12 -23 16 -23 10 0 -6 -12 -18 -27 -26 -16
-8 -23 -15 -17 -16 5 0 19 7 30 15 22 17 34 19 34 5 0 -5 -12 -17 -27 -25 -26
-15 -16 -14 22 1 26 11 16 -12 -10 -24 -28 -13 -73 -16 -62 -5 6 5 -9 17 -50
38 -7 4 -22 -1 -35 -10 -15 -11 -17 -15 -5 -11 50 18 52 17 28 -4 l-25 -21 30
6 c28 6 28 6 10 -9 -23 -19 -48 -20 -63 -5 -9 9 -19 6 -39 -10 -38 -30 -57
-26 -104 16 -43 40 -48 62 -30 138 5 22 6 43 2 47 -18 18 -36 -16 -49 -92 -15
-91 -11 -123 6 -38 l10 53 -5 -60 c-3 -43 -2 -56 5 -45 9 12 11 10 11 -12 0
-31 -24 -59 -45 -52 -8 4 -15 10 -15 15 0 21 -2 24 -21 31 -23 9 -23 12 -5
106 9 49 10 74 3 79 -18 11 -34 -25 -47 -105 -6 -42 -17 -84 -24 -92 -9 -13
-9 -13 6 -2 9 8 19 23 21 35 3 16 5 14 6 -8 0 -17 -5 -37 -11 -45 -7 -8 -3 -6
10 5 l23 19 -9 -25 c-13 -34 -43 -34 -71 2 l-24 30 18 109 c14 89 21 111 36
115 10 4 23 4 28 0 5 -3 13 0 17 6 4 6 19 9 37 5 16 -3 36 -1 43 5 7 5 27 11
45 11 42 1 79 -39 78 -85 -1 -30 -1 -31 -8 -7 -7 21 -9 16 -15 -28 -9 -62 -5
-71 22 -44 13 13 23 45 31 97 6 42 14 81 17 86 10 17 46 9 51 -11 3 -11 9 -20
14 -20 9 0 1 -60 -10 -72 -4 -5 -6 9 -4 30 l2 37 -8 -40 c-5 -23 -5 -41 0 -43
15 -6 10 -30 -7 -40 -15 -8 -15 -10 0 -15 27 -11 43 31 66 173 12 74 24 138
27 143 8 14 44 7 50 -10z m-110 -40 c4 -10 11 -21 16 -24 6 -4 6 -15 2 -25 -5
-11 -7 -22 -7 -26 4 -15 -14 -8 -47 21 -25 22 -32 33 -26 50 8 26 53 29 62 4z
m-110 -470 c-1 -16 -8 -34 -14 -41 -7 -7 -13 -20 -13 -29 0 -30 27 5 40 52 13
46 30 61 30 26 0 -11 5 -23 11 -26 6 -4 7 -19 4 -36 -9 -40 3 -36 21 6 15 36
31 44 51 24 16 -16 5 -39 -18 -39 -10 0 -19 -4 -19 -10 0 -15 21 -12 42 7 10
9 21 13 26 9 16 -16 -38 -44 -80 -42 -41 3 -43 4 -42 34 2 40 -3 40 -20 0 -21
-49 -85 -45 -67 5 5 12 6 28 4 35 -3 6 0 12 5 12 5 0 12 9 15 20 8 30 25 24
24 -7z m-157 13 c0 -2 -7 -17 -15 -32 -8 -16 -15 -38 -14 -49 0 -15 5 -11 22
17 21 36 50 52 46 26 -1 -7 -1 -21 0 -32 1 -15 4 -16 16 -6 9 7 19 10 23 6 4
-4 -4 -16 -17 -27 -17 -14 -35 -18 -67 -15 -25 2 -47 6 -50 9 -8 7 18 77 28
77 4 0 5 7 2 15 -4 9 0 15 10 15 9 0 16 -2 16 -4z m-260 -220 c-36 -90 -36
-97 -10 -68 24 26 38 28 46 7 5 -11 10 -12 26 -4 15 8 22 8 28 -1 5 -9 9 -9
14 -1 4 6 2 11 -3 11 -6 0 -11 5 -11 10 0 6 9 10 20 10 27 0 25 -15 -7 -39
-14 -12 -23 -24 -19 -28 12 -12 58 20 76 52 9 17 25 31 36 33 18 3 18 2 2 -8
-11 -7 -18 -23 -18 -41 0 -27 2 -29 21 -19 11 6 29 26 40 43 l19 32 -28 6
c-22 6 -23 7 -5 8 22 1 28 6 59 46 15 19 15 19 9 -9 -6 -29 -6 -29 34 -22 25
4 41 2 41 -4 0 -5 -12 -10 -27 -10 -56 0 -71 -10 -87 -58 -9 -25 -16 -57 -16
-70 0 -22 4 -20 36 22 48 63 56 51 9 -14 -42 -58 -61 -60 -58 -6 2 34 1 36
-18 25 -11 -6 -25 -24 -31 -40 -5 -16 -16 -29 -24 -29 -18 0 -18 25 1 44 8 8
15 22 15 31 0 13 -6 11 -33 -9 -44 -34 -65 -33 -69 2 l-3 27 -38 -39 c-20 -22
-40 -37 -44 -33 -3 4 3 17 15 30 23 25 29 47 11 47 -5 0 -19 -20 -30 -45 -11
-25 -23 -45 -26 -45 -18 0 34 207 60 239 22 27 17 -8 -13 -83z"/>
<path d="M1836 964 c-10 -26 -7 -34 13 -34 20 0 31 17 24 38 -6 17 -30 15 -37
-4z"/>
<path d="M1930 939 c0 -26 -44 -59 -79 -59 -26 0 -32 -4 -29 -17 5 -30 60 -28
97 2 32 28 38 49 21 75 -9 13 -10 13 -10 -1z"/>
<path d="M1985 872 c-11 -20 -35 -47 -54 -59 -42 -28 -30 -31 14 -3 18 11 40
36 50 56 22 48 15 52 -10 6z"/>
<path d="M2011 859 c-1 -18 -65 -79 -83 -79 -6 0 -9 -2 -6 -5 18 -18 105 63
95 88 -4 7 -6 6 -6 -4z"/>
<path d="M1530 738 c-15 -13 -18 -19 -7 -15 48 19 51 18 27 -3 l-25 -23 25 8
c37 11 42 20 23 37 -17 15 -20 15 -43 -4z"/>
<path d="M1020 2392 c0 -6 -11 -24 -25 -40 -22 -26 -24 -42 -4 -42 9 0 41 81
34 88 -3 3 -5 0 -5 -6z"/>
<path d="M2346 2361 c-11 -13 -15 -27 -11 -40 5 -16 2 -21 -11 -21 -14 0 -15
-3 -6 -12 10 -10 16 -7 28 10 21 30 31 28 44 -12 6 -18 21 -38 33 -45 l22 -12
-22 5 c-16 3 -23 -2 -28 -21 -5 -20 -11 -24 -30 -20 -17 3 -25 0 -25 -10 0
-20 51 -6 71 20 11 13 24 18 37 15 31 -8 22 14 -10 29 -16 7 -28 19 -28 28 0
9 -6 23 -14 31 -8 7 -17 19 -20 26 -5 10 -7 10 -12 1 -3 -7 -10 -13 -15 -13
-14 0 -11 22 8 42 9 10 14 18 11 18 -3 0 -13 -9 -22 -19z"/>
<path d="M2241 2284 c0 -12 6 -27 14 -34 17 -14 18 -45 4 -75 -7 -15 -8 -9 -4
20 4 29 3 36 -4 25 -13 -18 -14 -50 -2 -69 6 -9 13 0 24 32 14 43 14 47 -3 62
-11 10 -21 27 -23 39 l-4 21 -2 -21z"/>
<path d="M1260 2200 c43 -10 -2 -20 -93 -20 -117 0 -124 -15 -8 -17 83 -2 103
0 146 21 l49 23 -59 0 c-37 0 -50 -3 -35 -7z"/>
<path d="M1690 2180 c74 -27 93 -30 150 -25 60 5 90 1 145 -21 17 -7 18 -6 7
8 -13 16 -50 24 -157 34 -33 3 -63 10 -66 16 -4 6 -42 13 -85 15 l-79 4 85
-31z"/>
<path d="M1014 2128 c-21 -22 -24 -29 -10 -24 15 5 17 3 11 -11 -14 -34 -26
-85 -22 -89 2 -3 10 15 16 40 6 25 15 48 21 51 5 3 10 11 10 16 0 6 -4 7 -10
4 -16 -10 -12 7 7 27 9 10 14 18 11 18 -2 0 -17 -14 -34 -32z"/>
<path d="M2335 2141 c6 -20 -2 -26 -28 -22 -5 1 -5 -3 -2 -10 4 -6 -2 -17 -14
-25 -12 -8 -21 -21 -20 -27 0 -9 2 -9 6 1 2 6 11 12 19 12 8 0 17 7 20 15 4 8
9 13 13 11 3 -2 11 6 17 18 8 17 7 25 -4 36 -12 11 -13 10 -7 -9z"/>
<path d="M1361 2124 c-12 -15 -21 -32 -21 -38 0 -6 -7 -3 -14 7 -11 14 -19 16
-41 7 -14 -6 -32 -7 -38 -3 -7 3 -9 3 -5 -2 11 -12 -11 -35 -33 -35 -11 0 -19
-4 -19 -9 0 -5 -22 -17 -49 -26 -51 -17 -77 -37 -67 -54 3 -5 0 -11 -8 -14 -8
-3 -16 -28 -20 -60 -6 -48 -3 -65 29 -144 20 -50 42 -90 49 -90 14 0 -6 53
-55 150 -18 34 -19 46 -10 77 6 20 25 49 42 65 30 29 31 29 19 5 -11 -21 -7
-20 26 11 32 29 159 119 169 119 2 0 6 -11 9 -25 6 -22 12 -25 48 -25 32 0 39
-3 30 -12 -7 -7 -8 -17 -1 -29 8 -15 18 -18 57 -13 37 5 54 13 78 40 28 31 34
33 58 24 39 -15 45 -13 52 15 3 14 8 25 10 25 3 0 39 -18 82 -39 95 -48 182
-126 182 -163 0 -22 -4 -25 -22 -21 -13 3 -43 15 -68 28 -84 43 -148 57 -287
60 -95 3 -142 0 -165 -9 -32 -13 -125 -31 -140 -28 -5 1 -8 -2 -8 -7 0 -5 -17
-16 -38 -24 -36 -15 -75 -47 -55 -47 17 0 239 77 260 91 16 9 27 10 45 2 21
-9 18 -12 -36 -27 -77 -23 -152 -72 -136 -91 8 -10 17 -6 43 20 19 19 52 38
77 45 45 12 203 15 246 4 37 -10 28 -20 -13 -16 -31 3 -36 2 -26 -9 7 -7 21
-14 30 -15 54 -8 58 -11 64 -50 3 -21 7 -29 8 -16 0 14 5 21 12 16 14 -8 -7
33 -30 60 -13 16 -13 18 -1 11 8 -4 25 -17 37 -28 17 -15 20 -24 12 -44 -5
-13 -9 -41 -9 -61 0 -26 -8 -44 -26 -61 -17 -16 -21 -26 -14 -31 8 -5 5 -20
-10 -51 l-23 -44 23 20 c12 11 31 39 41 62 22 52 75 111 162 180 37 30 67 61
67 69 0 29 -31 75 -72 104 -46 34 -41 41 7 9 17 -12 43 -38 57 -59 31 -43 29
-58 -17 -150 -33 -68 -9 -46 39 34 36 60 46 98 25 94 -6 -2 -16 10 -22 27 -6
16 -16 36 -24 43 -7 8 -11 17 -8 22 7 12 -103 63 -135 62 -14 0 -30 5 -37 10
-23 18 -103 38 -103 25 0 -6 -13 3 -29 21 -29 31 -64 42 -76 22 -3 -5 -11 -10
-16 -10 -6 0 -7 5 -4 10 3 6 1 10 -4 10 -6 0 -11 -7 -11 -15 0 -18 1 -18 -43
0 -27 11 -37 12 -40 2 -4 -9 -6 -9 -6 1 -2 21 -39 13 -60 -14z m117 -43 c9
-20 10 -21 6 -3 -4 18 -1 22 18 22 13 0 32 7 42 15 35 26 36 4 1 -26 -20 -18
-32 -36 -28 -45 3 -10 -4 -16 -26 -20 -17 -4 -34 -11 -37 -15 -10 -17 -22 -9
-38 23 -21 40 -21 39 14 33 37 -6 39 7 5 33 -17 13 -21 22 -13 25 19 6 44 -12
56 -42z m200 -170 c39 -10 74 -16 78 -12 4 3 4 0 0 -6 -7 -12 16 -18 51 -14 6
1 14 -3 18 -9 3 -5 1 -10 -6 -10 -7 0 -9 -3 -6 -6 4 -4 13 -1 22 6 13 11 15 8
15 -24 0 -34 -6 -41 -37 -37 -7 1 -13 -5 -13 -14 0 -8 -6 -15 -14 -15 -8 0
-16 -5 -18 -12 -2 -6 -10 -8 -16 -4 -9 5 -9 13 -2 27 6 10 7 19 3 19 -4 0 -2
4 5 8 9 6 7 14 -8 30 -31 33 -88 59 -166 76 -67 14 -68 14 -23 15 25 1 77 -7
117 -18z"/>
<path d="M2382 2126 c8 -8 17 -10 24 -5 6 5 19 2 32 -7 18 -13 21 -13 16 0 -5
14 -34 26 -67 26 -15 0 -16 -2 -5 -14z"/>
<path d="M1966 2057 c30 -55 43 -146 29 -215 -6 -31 -14 -50 -19 -45 -5 4 -6
3 -2 -4 4 -7 -11 -63 -33 -125 -23 -62 -41 -120 -41 -130 0 -33 -42 -129 -77
-174 -19 -25 -32 -48 -29 -51 3 -3 -12 -24 -34 -46 -46 -49 -44 -60 5 -23 19
15 40 24 47 20 7 -4 8 -3 4 4 -7 12 23 32 39 26 6 -2 20 11 33 30 19 27 22 41
16 71 l-7 38 -13 -32 c-7 -17 -15 -31 -18 -31 -9 0 67 205 87 234 12 17 21 36
19 42 -1 7 5 38 14 70 8 33 17 66 19 74 2 8 4 17 5 20 3 7 5 17 14 82 12 81 0
132 -39 173 -43 46 -49 44 -19 -8z"/>
<path d="M2340 2040 c0 -5 5 -11 10 -11 20 -3 25 -4 37 -12 12 -8 29 10 19 20
-3 4 -6 1 -6 -6 0 -9 -7 -8 -22 3 -26 18 -38 20 -38 6z"/>
<path d="M1025 2004 c-32 -79 -40 -94 -47 -94 -17 0 -7 -28 15 -44 12 -9 16
-14 10 -11 -9 4 -13 -2 -12 -17 0 -13 3 -17 6 -10 9 22 24 13 17 -12 -3 -13 1
-52 10 -86 9 -34 18 -75 21 -92 3 -17 8 -34 10 -38 2 -4 7 -20 9 -36 5 -26 37
-136 54 -189 11 -33 45 -84 59 -89 11 -4 10 0 -1 22 -24 46 -67 183 -86 272
-10 47 -30 128 -43 180 -14 52 -26 100 -28 105 -4 17 11 88 27 124 10 22 12
37 5 44 -6 6 -15 -4 -26 -29z"/>
<path d="M919 1991 c-23 -18 -23 -19 -4 -37 16 -16 16 -19 3 -22 -17 -3 -43
-52 -28 -52 5 0 17 12 27 26 20 31 28 68 13 59 -5 -3 -10 1 -10 9 0 9 7 16 15
16 8 0 15 5 15 10 0 14 -4 13 -31 -9z"/>
<path d="M1106 1915 c5 -12 4 -16 -3 -12 -23 14 -31 -57 -10 -83 7 -8 44 -40
82 -71 51 -41 80 -73 105 -119 32 -57 65 -91 58 -59 -4 16 57 29 151 32 49 1
76 6 78 14 3 9 10 10 22 4 9 -5 23 -6 30 -1 10 5 4 10 -18 15 -19 4 -37 2 -45
-4 -7 -6 -16 -8 -19 -4 -4 3 -7 1 -7 -5 0 -19 -52 -14 -87 8 -22 13 -33 16
-33 7 0 -9 -3 -8 -9 1 -6 11 -10 10 -15 -3 -5 -15 -9 -15 -22 -4 -13 11 -15
10 -12 -6 4 -24 -20 -32 -29 -8 -9 23 -158 173 -172 173 -6 0 -16 11 -21 25
-5 14 -14 25 -20 25 -16 0 -12 42 6 54 14 11 14 13 0 25 -14 12 -16 11 -10 -4z"/>
<path d="M2134 1862 c1 -22 5 -44 10 -49 5 -4 5 2 1 16 -5 16 -4 21 4 17 15
-10 14 16 -2 38 -12 16 -13 13 -13 -22z"/>
<path d="M2380 1884 c0 -6 -9 -20 -20 -32 -12 -12 -16 -22 -9 -22 8 0 8 -5 -2
-17 -7 -10 6 0 29 22 23 21 42 41 42 44 0 2 -11 -6 -25 -19 -24 -23 -37 -16
-13 8 6 6 9 15 5 19 -4 3 -7 2 -7 -3z"/>
<path d="M1418 1873 c-21 -2 -38 -8 -38 -13 0 -4 -11 -11 -24 -14 -13 -3 -27
-13 -30 -22 -10 -25 2 -30 19 -8 12 15 16 16 23 6 7 -11 10 -9 15 7 3 13 13
21 26 21 18 0 21 -5 18 -35 -2 -28 -7 -37 -31 -45 -32 -11 -66 -38 -66 -51 0
-12 33 1 47 19 7 8 19 12 28 8 9 -3 13 -2 10 3 -8 14 9 21 25 11 9 -5 19 -5
27 1 8 7 18 7 32 -1 16 -8 27 -8 42 1 16 8 20 8 14 -1 -5 -9 -3 -9 11 -2 21
11 41 6 66 -15 9 -8 22 -12 27 -8 6 3 16 -6 23 -20 8 -18 14 -22 19 -13 9 15
-23 53 -63 74 -15 8 -52 14 -82 14 -34 0 -56 5 -59 13 -4 10 -6 10 -6 0 -1 -8
-14 -13 -31 -13 -28 0 -29 2 -23 33 8 44 19 54 44 39 22 -14 35 -10 24 7 -6
11 -15 11 -87 4z"/>
<path d="M2237 1851 c9 -35 30 -46 61 -32 26 12 26 13 7 27 -11 8 -26 12 -33
9 -8 -3 -20 -1 -27 5 -11 9 -12 7 -8 -9z"/>
<path d="M819 1828 c0 -22 -1 -22 -9 -3 -6 13 -9 15 -9 5 0 -8 3 -21 8 -28 7
-11 9 -10 15 3 3 9 10 13 16 10 6 -4 7 -11 4 -17 -4 -6 -2 -8 4 -5 7 5 7 15
-1 32 -15 31 -27 32 -28 3z"/>
<path d="M2406 1822 c-24 -47 -52 -65 -88 -59 -30 4 -35 1 -50 -29 -18 -34
-11 -46 12 -19 10 12 15 12 35 -1 21 -14 27 -14 54 0 16 9 33 21 37 27 3 6 -5
4 -19 -6 -28 -18 -78 -17 -85 2 -2 9 5 11 28 7 24 -5 36 -2 55 16 14 13 25 31
25 39 0 13 2 13 9 3 7 -11 9 -10 14 3 5 10 3 14 -5 9 -7 -5 -9 0 -6 14 8 30 1
27 -16 -6z"/>
<path d="M914 1784 c-5 -25 -9 -32 -15 -22 -7 10 -9 9 -9 -4 0 -23 27 -23 32
-1 3 15 5 15 22 -3 19 -19 20 -19 13 6 -4 14 -7 33 -7 43 0 33 -29 18 -36 -19z"/>
<path d="M1278 1759 l5 -32 12 24 c14 26 11 39 -9 39 -8 0 -11 -10 -8 -31z"/>
<path d="M1119 1753 c5 -10 28 -38 50 -62 23 -24 41 -47 41 -52 0 -4 5 -20 12
-36 6 -15 11 -31 10 -35 -1 -4 8 -13 19 -19 16 -8 18 -13 9 -19 -15 -9 8 -45
63 -99 30 -28 38 -31 54 -21 16 10 16 11 -5 7 -18 -4 -26 2 -39 31 -35 76 -34
74 -16 64 19 -11 306 -4 346 8 15 5 27 5 27 0 0 -4 -5 -10 -11 -12 -5 -2 -11
-11 -13 -20 -3 -23 -14 -33 -37 -34 -10 -1 -31 -3 -46 -4 l-28 -2 30 -7 c17
-4 34 -4 39 1 5 4 15 3 22 -3 9 -8 23 5 53 50 23 33 44 74 47 91 4 16 10 30
15 30 5 0 8 3 7 8 0 4 2 15 7 25 4 10 5 20 2 23 -2 3 -21 -24 -41 -60 -37 -66
-60 -83 -97 -71 -16 5 -18 9 -9 15 20 12 -129 23 -199 15 -34 -4 -63 -10 -65
-14 -2 -3 31 -2 74 3 51 6 93 6 121 -1 43 -10 42 -10 -36 -12 -132 -2 -130 -2
-114 -12 14 -8 4 -14 -16 -9 -5 2 -26 2 -45 1 -19 -1 -31 1 -27 5 4 4 -3 12
-16 18 -12 6 -34 34 -48 62 -33 66 -79 125 -90 118 -5 -3 -9 -1 -9 4 0 5 -12
17 -26 27 -24 16 -25 16 -15 -2z"/>
<path d="M1833 1729 c-24 -22 -43 -45 -43 -51 0 -6 1 -9 3 -7 1 2 22 26 47 52
54 58 50 61 -7 6z"/>
<path d="M1912 1688 c-45 -88 -29 -74 26 24 18 32 29 58 25 58 -5 0 -28 -37
-51 -82z"/>
<path d="M1567 1713 c-5 -7 -21 -13 -38 -13 -16 0 -29 -4 -29 -10 0 -6 27 -9
63 -9 34 1 52 4 40 6 -12 2 -23 12 -25 21 -3 13 -6 14 -11 5z"/>
<path d="M937 1664 c-4 -4 3 -18 13 -32 11 -13 20 -30 20 -37 0 -7 6 -15 14
-18 11 -4 12 2 6 30 -5 19 -10 36 -12 37 -1 1 -10 7 -19 14 -9 6 -19 9 -22 6z"/>
<path d="M838 1599 c6 -9 8 -20 4 -25 -4 -5 -3 -6 2 -1 5 4 16 1 25 -7 9 -8
39 -23 67 -34 l51 -19 -1 21 c-1 17 -6 20 -33 18 -34 -4 -64 8 -103 42 -13 11
-19 14 -12 5z"/>
<path d="M1144 1496 c50 -122 97 -202 115 -198 7 1 10 -2 6 -8 -3 -5 -1 -10 4
-10 6 0 11 -5 11 -10 0 -6 16 -25 37 -43 60 -53 82 -64 31 -16 -44 41 -53 58
-49 83 1 5 -5 16 -13 25 -8 9 -33 55 -56 103 -23 48 -46 90 -51 94 -14 8 -12
3 32 -90 22 -48 39 -90 36 -92 -6 -6 -93 164 -101 197 -3 15 -15 37 -26 50
-14 17 -6 -10 24 -85z"/>
<path d="M1834 1555 c-3 -14 -10 -25 -14 -25 -4 0 -35 -57 -70 -127 -40 -81
-79 -144 -109 -176 -37 -41 -40 -47 -16 -31 56 36 112 99 149 167 21 37 35 67
32 67 -3 0 -20 -25 -37 -55 -17 -31 -34 -54 -36 -51 -3 2 25 61 61 130 36 69
62 126 56 126 -5 0 -12 -11 -16 -25z"/>
<path d="M1470 1460 c-33 -7 -32 -7 15 -8 28 0 59 3 70 8 16 7 13 8 -15 8 -19
0 -51 -4 -70 -8z"/>
<path d="M1495 1295 c-30 -13 -30 -13 -5 -16 14 -1 34 -2 45 -3 11 0 22 -3 25
-6 12 -16 68 -18 86 -4 18 14 17 14 -14 9 -18 -4 -38 -3 -45 2 -33 25 -63 31
-92 18z"/>
<path d="M1435 1279 c-5 -6 -22 -8 -47 -4 -32 6 -39 4 -36 -6 5 -16 42 -24 66
-13 9 4 21 6 25 5 5 -1 6 3 3 8 -4 5 0 12 6 14 9 4 10 6 1 6 -6 1 -15 -4 -18
-10z"/>
<path d="M2304 864 c-44 -31 -88 -65 -100 -75 -11 -11 -24 -17 -27 -14 -4 3
-3 0 2 -6 6 -8 39 10 104 59 84 63 118 92 104 92 -3 0 -40 -25 -83 -56z"/>
<path d="M2327 618 c-13 -24 -39 -72 -57 -108 -45 -90 -136 -247 -167 -286
-13 -18 -23 -41 -21 -51 3 -13 11 -5 28 29 21 43 52 68 84 68 17 0 265 67 293
80 15 6 21 15 16 26 -4 10 -8 12 -13 5 -6 -11 -82 -35 -145 -47 -16 -3 -32 -9
-35 -13 -6 -9 -98 -41 -117 -41 -12 0 32 92 127 265 26 47 48 115 37 115 -3 0
-16 -19 -30 -42z"/>
<path d="M2071 496 c15 -12 99 -57 99 -52 0 8 -78 56 -91 56 -7 0 -10 -2 -8
-4z"/>
<path d="M2071 467 c23 -18 79 -47 79 -40 0 9 -56 43 -72 43 -6 0 -9 -1 -7 -3z"/>
<path d="M1775 430 c-16 -27 -74 -43 -160 -47 -81 -3 -92 -6 -112 -29 -24 -26
-30 -68 -13 -94 5 -8 10 -10 10 -5 0 6 4 5 8 -1 4 -7 40 -14 81 -18 45 -3 80
-11 91 -21 21 -19 44 -19 73 0 13 8 43 17 67 19 25 3 47 6 50 7 3 1 13 0 23
-1 10 -1 27 6 37 15 15 13 17 22 9 42 -5 13 -9 36 -9 51 0 22 -10 33 -54 60
-55 32 -90 40 -101 22z m49 -16 c9 -3 16 -13 16 -21 0 -13 -3 -13 -15 -3 -21
17 -39 -1 -30 -29 5 -16 12 -20 26 -16 23 8 24 -1 5 -37 -11 -20 -12 -28 -3
-28 7 0 4 -5 -6 -11 -26 -15 -33 -4 -18 28 10 21 9 29 -2 40 -12 13 -17 6 -33
-44 -16 -50 -23 -58 -46 -61 -16 -2 -28 2 -28 8 0 7 8 9 19 5 15 -5 22 3 35
41 20 59 20 56 -5 52 -12 -2 -26 -13 -30 -26 -6 -15 -5 -21 1 -17 6 3 10 1 10
-4 0 -6 -2 -11 -4 -11 -2 0 -12 -3 -22 -7 -15 -5 -16 -2 -9 23 4 16 8 34 8 39
0 6 9 19 19 29 16 17 18 18 18 3 0 -22 29 -22 37 1 6 16 33 52 39 52 1 0 9 -3
18 -6z m71 -54 c-3 -5 -1 -10 4 -10 6 0 2 -9 -9 -20 -21 -21 -28 -46 -10 -35
6 3 10 2 10 -3 0 -10 -23 -22 -40 -22 -5 0 -2 16 6 35 8 19 11 35 8 35 -4 0
-1 7 6 15 14 17 35 21 25 5z m-327 -12 c17 -17 15 -32 -8 -61 -38 -48 -70 0
-34 51 17 25 25 27 42 10z m57 -10 c-4 -13 -7 -32 -8 -43 -2 -22 -17 -36 -29
-29 -4 3 -3 14 3 25 6 11 8 26 6 34 -6 13 11 35 26 35 5 0 6 -10 2 -22z m36
-17 c-14 -25 -14 -34 0 -25 8 4 8 0 0 -15 -7 -11 -16 -21 -20 -21 -20 0 -19
32 1 67 22 36 39 32 19 -6z"/>
<path d="M1537 320 c-19 -28 -21 -40 -7 -40 12 0 32 38 28 52 -3 7 -12 1 -21
-12z"/>
<path d="M773 253 c3 -10 12 -35 20 -56 12 -33 15 -36 27 -22 11 13 10 21 -6
50 -20 38 -50 58 -41 28z"/>
<path d="M2251 233 c-24 -10 -61 -46 -61 -60 0 -20 17 -15 23 7 3 11 21 27 41
35 41 17 81 7 108 -28 l17 -22 -6 23 c-10 42 -72 65 -122 45z"/>
<path d="M2768 2577 c-15 -36 -8 -111 12 -145 11 -18 25 -30 30 -27 6 4 4 12
-5 21 -18 19 -24 42 -27 114 -2 36 -6 49 -10 37z"/>
<path d="M2827 2098 c-2 -7 3 -25 11 -40 20 -35 12 -44 -94 -109 -67 -40 -84
-55 -84 -73 0 -23 54 -86 73 -86 5 0 25 -8 44 -17 38 -18 73 -65 73 -99 0 -58
69 -93 118 -58 35 24 26 34 -14 13 -48 -24 -71 -12 -86 47 -14 50 -60 104
-111 130 -42 22 -77 57 -69 70 9 12 89 64 100 64 16 0 84 78 78 89 -5 7 -1 8
9 5 11 -5 14 -1 12 12 -8 49 -48 84 -60 52z"/>
<path d="M2797 1306 c-3 -8 -18 -20 -33 -28 -15 -7 -25 -16 -23 -19 2 -3 -3
-13 -11 -22 -37 -40 -43 -52 -56 -105 -41 -174 10 -368 127 -477 64 -60 85
-58 29 2 -25 26 -48 49 -52 51 -13 6 -78 147 -82 177 -2 17 -7 38 -11 48 -4
10 -8 51 -9 91 -1 63 3 80 33 139 19 37 51 84 73 106 21 22 34 42 29 45 -5 3
-11 0 -14 -8z"/>
<path d="M96 573 c-20 -5 -41 -24 -66 -58 -15 -19 -14 -19 10 -4 14 9 44 20
68 24 37 6 41 9 32 26 -11 20 -12 20 -44 12z"/>
<path d="M0 138 c0 -24 36 -64 70 -78 41 -17 49 -6 14 17 -16 10 -41 31 -56
47 -19 19 -28 24 -28 14z"/>
</g>
</svg>
